<svg width="550" height="220" viewBox="0 0 550 220" fill="none" xmlns="http://www.w3.org/2000/svg">
<path d="M69.632 77.656V92.12H45.824V167H27.904V92.12H4.096V77.656H69.632ZM148.627 130.008C148.627 132.568 148.456 134.872 148.115 136.92H96.275C96.7017 142.04 98.4937 146.051 101.651 148.952C104.808 151.853 108.691 153.304 113.299 153.304C119.955 153.304 124.691 150.445 127.507 144.728H146.835C144.787 151.555 140.862 157.187 135.059 161.624C129.256 165.976 122.131 168.152 113.683 168.152C106.856 168.152 100.712 166.659 95.251 163.672C89.875 160.6 85.651 156.291 82.579 150.744C79.5923 145.197 78.099 138.797 78.099 131.544C78.099 124.205 79.5923 117.763 82.579 112.216C85.5657 106.669 89.747 102.403 95.123 99.416C100.499 96.4293 106.686 94.936 113.683 94.936C120.424 94.936 126.44 96.3867 131.731 99.288C137.107 102.189 141.246 106.328 144.147 111.704C147.134 116.995 148.627 123.096 148.627 130.008ZM130.067 124.888C129.982 120.28 128.318 116.611 125.075 113.88C121.832 111.064 117.864 109.656 113.171 109.656C108.734 109.656 104.979 111.021 101.907 113.752C98.9203 116.397 97.0857 120.109 96.403 124.888H130.067ZM157.099 131.288C157.099 124.12 158.507 117.763 161.323 112.216C164.224 106.669 168.107 102.403 172.971 99.416C177.92 96.4293 183.424 94.936 189.483 94.936C194.774 94.936 199.382 96.0027 203.307 98.136C207.318 100.269 210.518 102.957 212.907 106.2V96.088H230.955V167H212.907V156.632C210.603 159.96 207.403 162.733 203.307 164.952C199.296 167.085 194.646 168.152 189.355 168.152C183.382 168.152 177.92 166.616 172.971 163.544C168.107 160.472 164.224 156.163 161.323 150.616C158.507 144.984 157.099 138.541 157.099 131.288ZM212.907 131.544C212.907 127.192 212.054 123.48 210.347 120.408C208.64 117.251 206.336 114.861 203.435 113.24C200.534 111.533 197.419 110.68 194.091 110.68C190.763 110.68 187.691 111.491 184.875 113.112C182.059 114.733 179.755 117.123 177.963 120.28C176.256 123.352 175.403 127.021 175.403 131.288C175.403 135.555 176.256 139.309 177.963 142.552C179.755 145.709 182.059 148.141 184.875 149.848C187.776 151.555 190.848 152.408 194.091 152.408C197.419 152.408 200.534 151.597 203.435 149.976C206.336 148.269 208.64 145.88 210.347 142.808C212.054 139.651 212.907 135.896 212.907 131.544ZM336.521 95.064C345.225 95.064 352.222 97.752 357.513 103.128C362.889 108.419 365.577 115.843 365.577 125.4V167H347.657V127.832C347.657 122.285 346.249 118.061 343.433 115.16C340.617 112.173 336.777 110.68 331.913 110.68C327.049 110.68 323.166 112.173 320.265 115.16C317.449 118.061 316.041 122.285 316.041 127.832V167H298.121V127.832C298.121 122.285 296.713 118.061 293.897 115.16C291.081 112.173 287.241 110.68 282.377 110.68C277.428 110.68 273.502 112.173 270.601 115.16C267.785 118.061 266.377 122.285 266.377 127.832V167H248.457V96.088H266.377V104.664C268.681 101.677 271.625 99.3307 275.209 97.624C278.878 95.9173 282.889 95.064 287.241 95.064C292.788 95.064 297.737 96.2587 302.089 98.648C306.441 100.952 309.812 104.28 312.201 108.632C314.505 104.536 317.833 101.251 322.185 98.776C326.622 96.3013 331.401 95.064 336.521 95.064ZM400.246 77.656V132.952C400.246 139.011 401.825 143.661 404.982 146.904C408.139 150.061 412.577 151.64 418.294 151.64C424.097 151.64 428.577 150.061 431.734 146.904C434.891 143.661 436.47 139.011 436.47 132.952V77.656H454.518V132.824C454.518 140.419 452.854 146.861 449.526 152.152C446.283 157.357 441.889 161.283 436.342 163.928C430.881 166.573 424.779 167.896 418.038 167.896C411.382 167.896 405.323 166.573 399.862 163.928C394.486 161.283 390.219 157.357 387.062 152.152C383.905 146.861 382.326 140.419 382.326 132.824V77.656H400.246ZM489.752 106.328C492.056 103.085 495.213 100.397 499.224 98.264C503.32 96.0453 507.971 94.936 513.176 94.936C519.235 94.936 524.696 96.4293 529.56 99.416C534.509 102.403 538.392 106.669 541.208 112.216C544.109 117.677 545.56 124.035 545.56 131.288C545.56 138.541 544.109 144.984 541.208 150.616C538.392 156.163 534.509 160.472 529.56 163.544C524.696 166.616 519.235 168.152 513.176 168.152C507.971 168.152 503.363 167.085 499.352 164.952C495.427 162.819 492.227 160.131 489.752 156.888V200.792H471.832V96.088H489.752V106.328ZM527.256 131.288C527.256 127.021 526.36 123.352 524.568 120.28C522.861 117.123 520.557 114.733 517.656 113.112C514.84 111.491 511.768 110.68 508.44 110.68C505.197 110.68 502.125 111.533 499.224 113.24C496.408 114.861 494.104 117.251 492.312 120.408C490.605 123.565 489.752 127.277 489.752 131.544C489.752 135.811 490.605 139.523 492.312 142.68C494.104 145.837 496.408 148.269 499.224 149.976C502.125 151.597 505.197 152.408 508.44 152.408C511.768 152.408 514.84 151.555 517.656 149.848C520.557 148.141 522.861 145.709 524.568 142.552C526.36 139.395 527.256 135.64 527.256 131.288Z" fill="black"/>
<path d="M35.7177 0C39.227 4.1713 39.8378 9.41729 37.0448 13.6606C34.0519 18.2086 30.5759 22.4464 27.6719 27.0442C25.3675 30.6837 23.1242 34.495 21.7082 38.5278C19.0263 46.1558 21.7971 52.554 27.5441 58.1767C29.16 51.9391 33.1302 47.4631 37.3391 43.1478C38.9549 41.497 40.543 39.8185 42.1922 38.1954C48.0114 32.4509 51.7262 25.759 51.5318 17.2447C55.8352 20.081 57.5287 27.1329 54.7191 32.5118C52.87 36.0516 50.1992 39.2147 47.6116 42.3169C45.3072 45.0756 42.6419 47.5296 40.0933 50.0778C34.8071 55.3736 32.064 61.2068 36.3729 68.5855C36.2286 68.8182 36.0786 69.0564 35.9343 69.2891C34.3018 68.9124 32.6082 68.7074 31.0479 68.1368C17.5937 63.19 10.3363 48.0448 15.8668 34.8883C18.5488 28.5122 22.7799 22.7455 26.6502 16.929C30.1983 11.5777 34.1241 6.47577 35.7177 0Z" fill="#F7931E"/>
<path d="M43.3749 68.5634C39.8545 62.9407 40.1766 59.2126 44.2745 55.0025C47.7504 51.4295 51.2709 47.9008 54.7746 44.3555C54.9023 44.228 55.0745 44.1505 55.2299 44.0508C57.3233 46.6045 57.6343 49.4076 55.763 52.3546C54.6913 54.0386 53.2476 55.5343 51.7928 56.9303C48.339 60.2374 44.4133 63.1457 43.3749 68.5634Z" fill="#F7931E"/>
</svg>
